HIERARCHY
ROOT Hips
{
	OFFSET 0.000000 0.000000 0.000000 
	CHANNELS 6 Xposition Yposition Zposition Yrotation Zrotation Xrotation 
	JOINT Lumbar
	{
		OFFSET 0.000000 0.000000 0.000000 
		CHANNELS 3 Zrotation Xrotation Yrotation
		JOINT Neck
		{
			OFFSET 0.000000 0.445665 0.000000 
			CHANNELS 3 Zrotation Xrotation Yrotation
			End Site
			{
				OFFSET 0.000000 0.227535 0.000000 
			}
		}
		JOINT RightShoulder
		{
			OFFSET 0.019635 0.377685 0.194865 
			CHANNELS 3 Zrotation Xrotation Yrotation
			JOINT RightElbow
			{
				OFFSET 0.000000 -0.243375 0.000000 
				CHANNELS 2 Zrotation Yrotation
				JOINT RightWrist
				{
					OFFSET 0.000000 -0.264825 0.000000 
					CHANNELS 2 Zrotation Xrotation
					End Site
					{
						OFFSET 0.006600 -0.176220 0.000990 
					}
				}
			}
		}
		JOINT LeftShoulder
		{
			OFFSET 0.019635 0.377685 -0.194865 
			CHANNELS 3 Zrotation Xrotation Yrotation
			JOINT LeftElbow
			{
				OFFSET 0.000000 -0.243375 0.000000 
				CHANNELS 2 Zrotation Yrotation
				JOINT LeftWrist
				{
					OFFSET 0.000000 -0.264825 0.000000 
					CHANNELS 2 Zrotation Xrotation
					End Site
					{
						OFFSET 0.006600 -0.176220 -0.000990 
					}
				}
			}
		}
	}
	JOINT RightHip
	{
		OFFSET 0.052140 -0.069960 0.075570 
		CHANNELS 3 Zrotation Xrotation Yrotation
		JOINT RightKnee
		{
			OFFSET 0.000000 -0.402270 0.000000 
			CHANNELS 1 Zrotation
			JOINT RightAnkle
			{
				OFFSET 0.000000 -0.404085 0.000000 
				CHANNELS 3 Zrotation Xrotation Yrotation
				End Site
				{
					OFFSET 0.204105 -0.089430 0.008415 
				}
			}
		}
	}
	JOINT LeftHip
	{
		OFFSET 0.052140 -0.069960 -0.075570 
		CHANNELS 3 Zrotation Xrotation Yrotation
		JOINT LeftKnee
		{
			OFFSET 0.000000 -0.402270 0.000000 
			CHANNELS 1 Zrotation
			JOINT LeftAnkle
			{
				OFFSET 0.000000 -0.404085 0.000000 
				CHANNELS 3 Zrotation Xrotation Yrotation
				End Site
				{
					OFFSET 0.204105 -0.089430 -0.008415 
				}
			}
		}
	}
}
MOTION
Frames: 16
Frame Time: 0.02
0.00015 6e-05 0.00015 -178.17942 -34.17326 2.14158 46.71223 -1.11749 -3.98043 -15.47479 5.91555 -0.0983 -19.62282 -4.06388 -24.0932 19.13364 102.97457 12.91597 1.25207 -22.03797 -0.66998 42.15338 27.70289 -153.23542 30.13379 -8.09396 39.59354 -3.86487 -1.71537 -21.67242 -8.40261 -5.69256 -3.7935 44.77046 4.86475 -0.4878 -25.87147 -7.94459 4.27953 2.9524
0.0001 2e-05 0 -178.1779 -34.17122 2.14255 46.68582 -1.11685 -3.97554 -15.48144 5.91681 -0.09844 -19.59555 -4.05768 -24.05319 19.13448 102.97013 12.90264 1.26052 -22.25199 0.21728 38.65378 27.67973 -147.8396 28.70368 -7.26734 39.59436 -3.92733 -2.07762 -21.69079 -8.37844 -5.68125 -3.78231 44.77806 4.89753 -0.37941 -25.89138 -7.93396 4.26407 2.94389
6e-05 -1e-05 -0.00014 -178.17636 -34.16918 2.14353 46.65944 -1.11622 -3.97067 -15.48809 5.91808 -0.09857 -19.56836 -4.05151 -24.01324 19.13528 102.96574 12.88934 1.26895 -22.46528 1.10181 35.16511 27.65654 -142.46067 27.27802 -6.44331 39.59519 -3.98962 -2.43886 -21.70917 -8.3543 -5.66996 -3.77115 44.78564 4.93026 -0.27115 -25.91125 -7.92335 4.24863 2.9354
1e-05 -5e-05 -0.00028 -178.17484 -34.16715 2.1445 46.6331 -1.11559 -3.9658 -15.49472 5.91934 -0.0987 -19.54117 -4.04533 -23.97334 19.13612 102.9613 12.87606 1.27739 -22.67864 1.98637 31.67616 27.63344 -137.08126 25.85226 -5.61921 39.596 -4.05189 -2.80001 -21.72749 -8.3302 -5.65869 -3.75999 44.79322 4.96294 -0.16307 -25.9311 -7.91276 4.23321 2.92691
-4e-05 -9e-05 -0.00042 -178.17336 -34.16513 2.14546 46.60674 -1.11494 -3.96091 -15.50133 5.92058 -0.09883 -19.51391 -4.03911 -23.9334 19.13699 102.95686 12.86274 1.28583 -22.89271 2.87356 28.17666 27.61038 -131.68554 24.42219 -4.79263 39.59681 -4.11434 -3.16214 -21.74577 -8.30608 -5.64741 -3.74882 44.80084 4.99565 -0.05495 -25.95098 -7.90216 4.21778 2.91842
-8e-05 -0.00012 -0.00057 -178.17167 -34.16306 2.14646 46.58031 -1.11434 -3.95608 -15.50806 5.92193 -0.09897 -19.48686 -4.03305 -23.89341 19.13765 102.9526 12.84948 1.29422 -23.10435 3.75238 24.7112 27.58692 -126.34262 23.00599 -3.97408 39.59766 -4.17629 -3.52148 -21.76434 -8.2819 -5.63609 -3.73768 44.80834 5.02843 0.0536 -25.97082 -7.89153 4.20234 2.90991
-0.00013 -0.00016 -0.00071 -178.17042 -34.16107 2.14738 46.55405 -1.11365 -3.95113 -15.51456 5.92304 -0.0991 -19.45941 -4.02665 -23.85359 19.13876 102.94785 12.83613 1.30274 -23.32072 4.64729 21.18012 27.56431 -120.89781 21.56307 -3.14002 39.59842 -4.23915 -3.88599 -21.78232 -8.25786 -5.62487 -3.72648 44.81606 5.06104 0.16119 -25.99071 -7.88097 4.18692 2.90145
-0.00017 -0.00019 -0.00085 -178.16874 -34.15903 2.14837 46.52764 -1.11305 -3.94629 -15.52125 5.92438 -0.09923 -19.43232 -4.02061 -23.81359 19.13942 102.9438 12.82286 1.31108 -23.5326 5.527 17.71127 27.5409 -115.54978 20.1455 -2.3207 39.59929 -4.30119 -4.24585 -21.80085 -8.2337 -5.61356 -3.71534 44.82361 5.0938 0.26962 -26.01058 -7.87035 4.17149 2.89295
-0.00022 -0.00023 -0.00099 -178.1666 -34.15683 2.14946 46.50102 -1.11255 -3.9416 -15.52824 5.926 -0.09938 -19.4057 -4.01486 -23.77341 19.13965 102.93962 12.8097 1.31946 -23.73954 6.38993 14.31025 27.51655 -110.30664 18.75551 -1.51734 39.60018 -4.36217 -4.5997 -21.82003 -8.20935 -5.60212 -3.70426 44.83081 5.12677 0.37933 -26.03035 -7.85966 4.15601 2.88436
-0.00026 -0.00026 -0.00114 -178.16732 -34.15528 2.15001 46.4755 -1.11142 -3.93608 -15.53374 5.92598 -0.09948 -19.37648 -4.00697 -23.73437 19.1427 102.93323 12.79594 1.32837 -23.97658 7.35484 10.49411 27.49771 -104.41955 17.19653 -0.61595 39.60063 -4.42911 -4.98719 -21.83541 -8.18599 -5.59138 -3.69281 44.83958 5.15863 0.48243 -26.05047 -7.84935 4.14071 2.87618
-0.00032 -0.00031 -0.00128 -178.1619 -34.15254 2.1517 46.44777 -1.11165 -3.93231 -15.54221 5.92946 -0.09967 -19.35269 -4.00389 -23.69289 19.13958 102.93338 12.78344 1.33568 -24.14904 8.10105 7.56991 27.4672 -99.91728 16.00079 0.07462 39.60219 -4.48357 -5.30426 -21.85885 -8.16058 -5.57919 -3.68214 44.84532 5.19274 0.59895 -26.06998 -7.83826 4.12507 2.86718
-0.00042 -0.00037 -0.00142 -178.13996 -34.14508 2.1566 46.41297 -1.11562 -3.93359 -15.56003 5.94248 -0.10009 -19.34404 -4.01195 -23.64498 19.12114 102.93481 12.77428 1.34294 -24.15178 8.27224 6.97783 27.40504 -99.02636 15.75366 0.2155 39.60567 -4.50268 -5.42171 -21.90432 -8.12919 -5.56283 -3.67361 44.84093 5.2339 0.75682 -26.08694 -7.82479 4.10828 2.8557
-0.00054 -0.00044 -0.00155 -178.11164 -34.13685 2.16261 46.37611 -1.12099 -3.93668 -15.58044 5.95906 -0.10061 -19.34062 -4.02528 -23.59465 19.09618 102.94491 12.76637 1.34803 -24.08849 8.22036 7.29823 27.33131 -99.55405 15.87841 0.1404 39.61075 -4.50943 -5.46956 -21.95799 -8.09584 -5.54508 -3.66587 44.83417 5.27716 0.92711 -26.10353 -7.81058 4.0912 2.84346
-0.00066 -0.0005 -0.00169 -178.0862 -34.12967 2.1681 46.34086 -1.12573 -3.93863 -15.59908 5.97404 -0.10109 -19.33486 -4.03748 -23.54515 19.07313 102.96321 12.758 1.35096 -24.05025 8.2527 7.28224 27.26237 -99.56456 15.86669 0.14404 39.61545 -4.52267 -5.55354 -22.00783 -8.0636 -5.52809 -3.65776 44.82926 5.31889 1.08907 -26.12078 -7.79684 4.07438 2.83173
-0.00077 -0.00057 -0.00183 -178.06142 -34.11881 2.17379 46.30284 -1.13043 -3.94146 -15.62088 5.98885 -0.10156 -19.32966 -4.04413 -23.49643 19.05457 102.93436 12.74933 1.36613 -24.03194 8.3522 6.95624 27.19451 -99.06792 15.72571 0.22497 39.6175 -4.53244 -5.61873 -22.05771 -8.03032 -5.51048 -3.64966 44.81972 5.36308 1.26332 -26.13566 -7.7825 4.05698 2.81929
-0.00089 -0.00064 -0.00197 -178.03304 -34.11635 2.17915 46.26999 -1.13556 -3.94346 -15.63588 6.00496 -0.10206 -19.32363 -4.06388 -23.44596 19.02507 103.00067 12.74141 1.35661 -23.95758 8.26499 7.46879 27.12274 -99.92835 15.93289 0.09903 39.62694 -4.54618 -5.70613 -22.10997 -7.99887 -5.49392 -3.64179 44.82096 5.40261 1.41375 -26.15574 -7.76931 4.04077 2.80819
